<?xml version="1.0" encoding="UTF-8" standalone="no"?>
<svg
   version="1.1"
   width="192"
   height="176.8819"
   style="clip-rule:evenodd;fill-rule:evenodd;image-rendering:optimizeQuality;shape-rendering:geometricPrecision;text-rendering:geometricPrecision"
   id="svg2"
   xmlns="http://www.w3.org/2000/svg"
   xmlns:svg="http://www.w3.org/2000/svg">
  <defs
     id="defs2" />
  <g
     id="g3"
     transform="matrix(0.8112157,0,0,0.8112157,42.33071,40.314961)">
    <g
       id="g1">
      <path
         style="opacity:0.715"
         fill="#e5e5e5"
         d="m 49.5,-0.5 c 9.6667,0 19.3333,0 29,0 10.0915,24.4359 20.0915,48.9359 30,73.5 -0.145,0.772 -0.478,1.4387 -1,2 -17.4902,6.8527 -35.4902,11.0194 -54,12.5 -14.8286,0.0702 -29.1619,2.7369 -43,8 C 10.1667,95 9.83333,94.5 9.5,94 22.7105,62.4165 36.0438,30.9165 49.5,-0.5 Z m 14,38 c 5.1314,11.2826 9.4648,22.9493 13,35 -8.6667,0 -17.3333,0 -26,0 4.0485,-11.7653 8.3819,-23.432 13,-35 z"
         id="path1" />
    </g>
    <g
       id="g2"
       transform="translate(0,2)">
      <path
         style="opacity:0.707"
         fill="#e5e5e5"
         d="m 127.5,119.5 c 0,1 0,2 0,3 -10.667,0 -21.333,0 -32,0 -2.7974,-7.722 -5.7974,-15.388 -9,-23 -15.3189,-0.9994 -30.6522,-1.3327 -46,-1 -2.6049,8.148 -5.6049,16.148 -9,24 -10.6667,0 -21.3333,0 -32,0 0,-1.333 0,-2.667 0,-4 2.72495,-5.122 5.22495,-10.455 7.5,-16 5.979,-4.1116 12.479,-7.2783 19.5,-9.5 9.0539,-2.2614 18.0539,-4.0947 27,-5.5 18.8355,-0.6391 37.1688,-3.9724 55,-10 6.366,14.0597 12.699,28.06 19,42 z"
         id="path2" />
    </g>
    <rect
       style="fill:none"
       id="rect2"
       width="236.68181"
       height="218.04544"
       x="-52.18182"
       y="-49.696968" />
  </g>
</svg>
