<?xml version="1.0" encoding="UTF-8"?>
<!DOCTYPE svg PUBLIC "-//W3C//DTD SVG 1.1//EN" "http://www.w3.org/Graphics/SVG/1.1/DTD/svg11.dtd">
<svg xmlns="http://www.w3.org/2000/svg" version="1.1" width="128px" height="123px" style="shape-rendering:geometricPrecision; text-rendering:geometricPrecision; image-rendering:optimizeQuality; fill-rule:evenodd; clip-rule:evenodd" xmlns:xlink="http://www.w3.org/1999/xlink">
<g><path style="opacity:0.715" fill="#e5e5e5" d="M 49.5,-0.5 C 59.1667,-0.5 68.8333,-0.5 78.5,-0.5C 88.5915,23.9359 98.5915,48.4359 108.5,73C 108.355,73.772 108.022,74.4387 107.5,75C 90.0098,81.8527 72.0098,86.0194 53.5,87.5C 38.6714,87.5702 24.3381,90.2369 10.5,95.5C 10.1667,95 9.83333,94.5 9.5,94C 22.7105,62.4165 36.0438,30.9165 49.5,-0.5 Z M 63.5,37.5 C 68.6314,48.7826 72.9648,60.4493 76.5,72.5C 67.8333,72.5 59.1667,72.5 50.5,72.5C 54.5485,60.7347 58.8819,49.068 63.5,37.5 Z"/></g>
<g><path style="opacity:0.707" fill="#e5e5e5" d="M 127.5,119.5 C 127.5,120.5 127.5,121.5 127.5,122.5C 116.833,122.5 106.167,122.5 95.5,122.5C 92.7026,114.778 89.7026,107.112 86.5,99.5C 71.1811,98.5006 55.8478,98.1673 40.5,98.5C 37.8951,106.648 34.8951,114.648 31.5,122.5C 20.8333,122.5 10.1667,122.5 -0.5,122.5C -0.5,121.167 -0.5,119.833 -0.5,118.5C 2.22495,113.378 4.72495,108.045 7,102.5C 12.979,98.3884 19.479,95.2217 26.5,93C 35.5539,90.7386 44.5539,88.9053 53.5,87.5C 72.3355,86.8609 90.6688,83.5276 108.5,77.5C 114.866,91.5597 121.199,105.56 127.5,119.5 Z"/></g>
</svg>
